<svg height="480pt" viewBox="0 -19 480 479" width="480pt" xmlns="http://www.w3.org/2000/svg"><g fill="#dd3e46"><path d="m32 376.5c-17.671875 0-32-14.328125-32-32s14.328125-32 32-32 32 14.328125 32 32-14.328125 32-32 32zm0-48c-8.835938 0-16 7.164062-16 16s7.164062 16 16 16 16-7.164062 16-16-7.164062-16-16-16zm0 0"/><path d="m208 376.5c-17.671875 0-32-14.328125-32-32s14.328125-32 32-32 32 14.328125 32 32-14.328125 32-32 32zm0-48c-8.835938 0-16 7.164062-16 16s7.164062 16 16 16 16-7.164062 16-16-7.164062-16-16-16zm0 0"/><path d="m56 296.5h-40c-4.417969 0-8-3.582031-8-8v-24c0-4.417969 3.582031-8 8-8s8 3.582031 8 8v16h32c4.417969 0 8 3.582031 8 8s-3.582031 8-8 8zm0 0"/><path d="m224 296.5h-40c-4.417969 0-8-3.582031-8-8s3.582031-8 8-8h32v-16c0-4.417969 3.582031-8 8-8s8 3.582031 8 8v24c0 4.417969-3.582031 8-8 8zm0 0"/></g><path d="m120 400.5c-4.417969 0-8-3.582031-8-8v-344c0-4.417969 3.582031-8 8-8s8 3.582031 8 8v344c0 4.417969-3.582031 8-8 8zm0 0" fill="#cfdfe8"/><path d="m368 136.5c-4.417969 0-8-3.582031-8-8v-80c0-4.417969 3.582031-8 8-8s8 3.582031 8 8v80c0 4.417969-3.582031 8-8 8zm0 0" fill="#cfdfe8"/><path d="m280 160.5h176v272h-176zm0 0" fill="#dd3e46"/><path d="m368 288.5h56v144h-56zm0 0" fill="#5a6470"/><path d="m312 192.5h112v64h-112zm0 0" fill="#cfdfe8"/><path d="m392 232.5h-48c-4.417969 0-8-3.582031-8-8s3.582031-8 8-8h48c4.417969 0 8 3.582031 8 8s-3.582031 8-8 8zm0 0" fill="#5a6470"/><path d="m264 128.5h208v32h-208zm0 0" fill="#5a6470"/><path d="m56 248.5h64v184h-64zm0 0" fill="#ffd782"/><path d="m120 248.5h64v184h-64zm0 0" fill="#fcf05a"/><path d="m312 288.5h56v144h-56zm0 0" fill="#394d5c"/><path d="m392 352.5h-48c-4.417969 0-8 3.582031-8 8s3.582031 8 8 8h48c4.417969 0 8-3.582031 8-8s-3.582031-8-8-8zm0 0" fill="#cfdfe8"/><path d="m88 376.5c-4.417969 0-8-3.582031-8-8v-88c0-4.417969 3.582031-8 8-8s8 3.582031 8 8v88c0 4.417969-3.582031 8-8 8zm0 0" fill="#5a6470"/><path d="m152 376.5c-4.417969 0-8-3.582031-8-8v-88c0-4.417969 3.582031-8 8-8s8 3.582031 8 8v88c0 4.417969-3.582031 8-8 8zm0 0" fill="#5a6470"/><path d="m8 .5h464v48h-464zm0 0" fill="#dd3e46"/><path d="m472 440.5h-464c-4.417969 0-8-3.582031-8-8s3.582031-8 8-8h464c4.417969 0 8 3.582031 8 8s-3.582031 8-8 8zm0 0" fill="#dd3e46"/></svg>