<?xml version="1.0" encoding="iso-8859-1"?>
<!-- Generator: Adobe Illustrator 19.0.0, SVG Export Plug-In . SVG Version: 6.00 Build 0)  -->
<svg version="1.1" id="Capa_1" xmlns="http://www.w3.org/2000/svg" xmlns:xlink="http://www.w3.org/1999/xlink" x="0px" y="0px"
	 viewBox="0 0 512 512" style="enable-background:new 0 0 512 512;" xml:space="preserve">
<path style="fill:#414B82;" d="M79.208,430.511c-9.154,0.001-16.575-7.42-16.576-16.574l-0.011-146.226
	c-0.001-9.154,7.42-16.576,16.574-16.576c9.153-0.001,16.575,7.42,16.576,16.574l0.011,146.226
	C95.782,423.088,88.361,430.51,79.208,430.511z"/>
<path style="fill:#53618C;" d="M97.993,155.039l-34.613-5.865c-10.44-1.769-20.336,5.26-22.105,15.699l-17.9,105.463v0.163l0,0l0,0
	v143.393c-0.023,9.154,7.378,16.594,16.533,16.618c0.015,0,0.029,0,0.044,0c9.134,0,16.551-7.393,16.574-16.533V276.028
	l39.268,6.743l17.9-105.629C115.461,166.705,108.433,156.808,97.993,155.039z"/>
<path style="fill:#696E73;" d="M55.328,391.309H7.447c-4.113,0-7.447-3.334-7.447-7.447c0-4.112,3.334-7.447,7.447-7.447h47.881
	c35.899,0,65.104-29.207,65.104-65.105v-29.498c0-4.112,3.334-7.447,7.447-7.447c4.113,0,7.447,3.334,7.447,7.447v29.499
	C135.326,355.422,99.44,391.309,55.328,391.309z"/>
<circle style="fill:#FFB69E;" cx="99.577" cy="109.879" r="28.391"/>
<path style="fill:#373C41;" d="M122.111,287.969c-6.069-3.185-8.407-10.688-5.222-16.757l11.997-22.858
	c2.472-4.709,7.665-7.318,12.92-6.493l58,9.135c6.771,1.066,11.396,7.42,10.33,14.191c-1.065,6.77-7.427,11.395-14.19,10.33
	l-49.213-7.752l-7.864,14.982C135.673,288.836,128.162,291.146,122.111,287.969z"/>
<path style="fill:#64AFFF;" d="M95.792,282.773l-72.417-12.436l17.897-105.469c1.771-10.438,11.667-17.464,22.104-15.695
	l34.617,5.866c10.44,1.769,17.468,11.666,15.699,22.105L95.792,282.773z"/>
<path style="fill:#373C41;" d="M195.208,427.31c-6.022,0-10.903-4.881-10.903-10.903v-88.2c0-16.672,13.516-30.188,30.189-30.188
	s30.189,13.516,30.189,30.188v88.2c0,6.022-4.881,10.903-10.903,10.903L195.208,427.31L195.208,427.31z"/>
<path style="fill:#272A2E;" d="M403.596,427.31c-6.022,0-10.903-4.881-10.903-10.903v-90.609c0-15.343,13.516-27.78,30.189-27.78
	c16.672,0,30.189,12.437,30.189,27.78v90.609c0,6.022-4.881,10.903-10.903,10.903H403.596z"/>
<g>
	<rect x="195.305" y="381.228" style="fill:#50555A;" width="12.226" height="46.077"/>
	<rect x="221.455" y="381.228" style="fill:#50555A;" width="12.226" height="46.077"/>
	<rect x="403.7" y="381.228" style="fill:#50555A;" width="12.226" height="46.077"/>
	<rect x="429.84" y="381.228" style="fill:#50555A;" width="12.226" height="46.077"/>
</g>
<path style="fill:#D72846;" d="M192.987,268.716c-2.552,0-5.099-1.007-6.994-3.005l-26.89-28.352
	c-3.662-3.862-3.501-9.961,0.361-13.623c3.863-3.663,9.962-3.501,13.624,0.361l26.89,28.352c3.662,3.862,3.501,9.961-0.361,13.623
	C197.753,267.84,195.366,268.716,192.987,268.716z"/>
<path style="fill:#F75C66;" d="M138.8,243.097h27.044c7.564,0,13.696-6.132,13.696-13.696V218.98
	c0-7.564-6.132-13.696-13.696-13.696H138.8c-7.564,0-13.696,6.132-13.696,13.696v10.421
	C125.104,236.965,131.236,243.097,138.8,243.097z"/>
<path style="fill:#D72846;" d="M444.118,268.716c-2.38,0-4.766-0.877-6.629-2.645c-3.862-3.662-4.023-9.761-0.361-13.623
	l26.889-28.352c3.662-3.862,9.762-4.024,13.623-0.361c3.862,3.662,4.023,9.761,0.361,13.623l-26.889,28.352
	C449.217,267.709,446.67,268.716,444.118,268.716z"/>
<path style="fill:#E64B55;" d="M498.304,243.097H471.26c-7.564,0-13.696-6.132-13.696-13.696V218.98
	c0-7.564,6.132-13.696,13.696-13.696h27.044c7.564,0,13.696,6.132,13.696,13.696v10.421
	C512,236.965,505.868,243.097,498.304,243.097z"/>
<polygon style="fill:#A0EBFF;" points="442.437,253.861 195.016,253.861 213.692,143.815 423.761,143.815 "/>
<path style="fill:#373C41;" d="M335.253,183.331H301.85c-2.466,0-4.465-1.999-4.465-4.465v-8.701c0-2.466,1.999-4.465,4.465-4.465
	h33.403c2.466,0,4.465,1.999,4.465,4.465v8.701C339.718,181.332,337.719,183.331,335.253,183.331z"/>
<path style="fill:#D72846;" d="M457.353,262.779c0.679,3.638-0.297,7.39-2.662,10.236c-2.364,2.846-5.873,4.493-9.574,4.493H192.258
	c-3.7,0-7.209-1.647-9.574-4.493c-2.365-2.846-3.341-6.598-2.662-10.236l22.455-120.377c1.1-5.892,6.242-10.164,12.236-10.164
	h207.949c5.995,0,11.137,4.272,12.236,10.164L457.353,262.779z M207.241,252.615h222.892l-17.812-95.484H225.053L207.241,252.615z"
	/>
<path style="fill:#696E73;" d="M370.773,204.2c-21.586,0-39.148,17.562-39.148,39.148s17.562,39.148,39.148,39.148
	c21.586,0,39.148-17.562,39.148-39.148S392.359,204.2,370.773,204.2z M370.773,270.047c-14.721,0-26.697-11.976-26.697-26.697
	c0-8.852,4.335-16.697,10.991-21.549c3.921-2.859,9.481-0.075,9.481,4.827c-0.271,4.721,0.813,7.795-1.603,11.213
	c-1.1,1.558-1.749,3.457-1.749,5.51c0,2.911,1.303,5.513,3.352,7.27v6.499h12.45v-6.499c2.05-1.757,3.353-4.359,3.353-7.27
	c0-2.051-0.647-3.949-1.747-5.506c-2.425-3.434-1.331-6.477-1.606-11.217c0-4.877,5.553-7.69,9.481-4.826
	c6.656,4.851,10.992,12.698,10.992,21.549C397.47,258.07,385.494,270.047,370.773,270.047z"/>
<path style="fill:#373C41;" d="M370.773,282.497c-21.587,0-39.148-17.562-39.148-39.148s17.561-39.148,39.148-39.148
	c21.587,0,39.148,17.562,39.148,39.148S392.36,282.497,370.773,282.497z M370.773,216.652c-14.721,0-26.698,11.976-26.698,26.697
	s11.977,26.697,26.698,26.697c14.721,0,26.698-11.976,26.698-26.697S385.494,216.652,370.773,216.652z"/>
<g style="opacity:0.22;">
	<path d="M244.682,400.876v-72.669c0-16.672-13.516-30.189-30.189-30.189s-30.189,13.516-30.189,30.189v61.463L244.682,400.876z"/>
	<path d="M453.071,400.876v-72.669c0-16.672-13.516-30.189-30.189-30.189c-16.672,0-30.189,13.516-30.189,30.189v61.463
		L453.071,400.876z"/>
</g>
<path style="fill:#E64B55;" d="M479.179,357.031c0,13.366-10.836,24.201-24.201,24.201h-272.58
	c-13.366,0-24.201-10.836-24.201-24.201v-50.315c0-35.713,28.952-64.665,64.665-64.665h191.652
	c35.713,0,64.665,28.952,64.665,64.665V357.031z"/>
<path style="fill:#50555A;" d="M159.495,364.658c3.191,9.62,12.211,16.575,22.903,16.575h272.579
	c10.693,0,19.713-6.954,22.903-16.575H159.495z"/>
<g>
	<path style="fill:#D72846;" d="M366.428,364.658h-94.556c-5.183,0-9.383-4.202-9.383-9.383v-47.373
		c0-5.183,4.202-9.383,9.383-9.383h94.556c5.183,0,9.383,4.202,9.383,9.383v47.373C375.812,360.457,371.61,364.658,366.428,364.658z
		"/>
	<ellipse style="fill:#D72846;" cx="213.697" cy="319.267" rx="26.483" ry="26.499"/>
	<ellipse style="fill:#D72846;" cx="423.686" cy="319.267" rx="26.483" ry="26.499"/>
</g>
<g>
	<ellipse style="fill:#FAC855;" cx="213.697" cy="313.043" rx="26.483" ry="26.499"/>
	<ellipse style="fill:#FAC855;" cx="423.686" cy="313.043" rx="26.483" ry="26.499"/>
</g>
<path style="fill:#B9B9BE;" d="M345.326,369.048h-52.351c-3.029,0-5.484-2.456-5.484-5.484v-13.796c0-3.029,2.456-5.484,5.484-5.484
	h52.351c3.029,0,5.484,2.456,5.484,5.484v13.796C350.81,366.593,348.355,369.048,345.326,369.048z"/>
<path style="fill:#D2D2D7;" d="M345.326,344.285h-52.351c-3.029,0-5.484,2.455-5.484,5.484v6.225c0-3.029,2.456-5.484,5.484-5.484
	h52.351c3.029,0,5.484,2.455,5.484,5.484v-6.225C350.81,346.739,348.355,344.285,345.326,344.285z"/>
<g>
	<ellipse style="fill:#FAF58C;" cx="423.686" cy="313.043" rx="15.014" ry="15.024"/>
	<ellipse style="fill:#FAF58C;" cx="213.697" cy="313.043" rx="15.014" ry="15.024"/>
</g>
<path style="fill:#E64B55;" d="M355.849,309.814h-73.396c-4.275,0-7.741,3.465-7.741,7.74c0,4.275,3.466,7.741,7.741,7.741h73.396
	c4.275,0,7.741-3.466,7.741-7.741C363.589,313.279,360.123,309.814,355.849,309.814z"/>
<path style="fill:#F75C66;" d="M399.655,268.395c-6.067,8.424-15.815,13.416-26.197,13.416H258.611
	c-7.05,0-13.67-3.391-17.791-9.111l-22.075-30.649h199.884L399.655,268.395z"/>
<g>
	<path style="fill:#FA870A;" d="M184.305,353.288v-10.032c0-3.373-2.734-6.107-6.107-6.107h-20.002v19.881
		c0,0.798,0.041,1.587,0.116,2.364h19.885C181.571,359.395,184.305,356.661,184.305,353.288z"/>
	<path style="fill:#FA870A;" d="M459.614,337.149c-3.373,0-6.107,2.734-6.107,6.107v10.032c0,3.373,2.734,6.107,6.107,6.107h19.449
		c0.075-0.778,0.116-1.567,0.116-2.364v-19.881L459.614,337.149L459.614,337.149z"/>
</g>
<rect x="311.52" y="157.127" style="fill:#696E73;" width="15.253" height="8.57"/>
<g style="opacity:0.38;">
	<polygon style="fill:#FFFFFF;" points="302.365,157.131 278.709,157.131 232.641,242.051 256.297,242.051 	"/>
</g>
<g style="opacity:0.36;">
	<polygon style="fill:#FFFFFF;" points="328.512,157.131 314.817,157.131 268.749,242.051 282.444,242.051 	"/>
</g>
<path style="fill:#FFB69E;" d="M137.535,258.286l-52.624-12.033c-5.08-1.162-9.167-4.923-10.744-9.891L57.5,175.287
	c-2.46-7.746,1.824-16.02,9.57-18.48c7.745-2.462,16.02,1.824,18.479,9.57l14.121,53.06l44.425,10.158
	c7.923,1.812,12.876,9.703,11.064,17.625C153.35,255.141,145.463,260.097,137.535,258.286z"/>
<path style="fill:#78BEFF;" d="M68.122,214.212l28.149-7.546l-10.722-40.288c-2.46-7.746-10.734-12.031-18.479-9.57
	c-7.747,2.46-12.03,10.733-9.57,18.48L68.122,214.212z"/>
<g>
</g>
<g>
</g>
<g>
</g>
<g>
</g>
<g>
</g>
<g>
</g>
<g>
</g>
<g>
</g>
<g>
</g>
<g>
</g>
<g>
</g>
<g>
</g>
<g>
</g>
<g>
</g>
<g>
</g>
</svg>
